<svg xmlns="http://www.w3.org/2000/svg" xmlns:xlink="http://www.w3.org/1999/xlink" version="1.1" x="0px" y="0px" viewBox="0 0 100 100" enable-background="new 0 0 100 100" xml:space="preserve"><path d="M14.366,37.581c8.603,7.21,17.031,17.218,28.377,19.736c10.891,2.416,23.938-0.398,34.738-3.433  c-1.954,2.845-4.072,5.58-6.244,8.297c-1.99,2.49,1.523,6.054,3.536,3.535c4.2-5.254,8.304-10.537,11.406-16.533  c0.702-1.358,0.107-3.329-1.54-3.653c-5.41-1.067-10.823-2.046-15.999-4c-3.013-1.138-4.262,3.709-1.27,4.838  c2.965,1.12,6.011,1.914,9.085,2.594c-9.694,2.688-20.059,4.598-30.086,3.861c-11.346-0.832-20.254-11.892-28.468-18.778  C15.452,31.99,11.895,35.509,14.366,37.581z"/></svg>
