<svg xmlns="http://www.w3.org/2000/svg" xmlns:xlink="http://www.w3.org/1999/xlink" version="1.1" x="0px" y="0px" viewBox="0 0 100 100" enable-background="new 0 0 100 100" xml:space="preserve"><g><path d="M90.171,56.183c0.733-1.041,1.335-2.176,1.796-3.363c0.911-2.347,1.257-4.914,0.976-7.418   c-0.491-4.394-3.083-9.017-6.978-11.3c-1.114-1.13-2.399-2.092-3.799-2.85c-0.805-6.509-6.197-9.814-11.82-11.887   c-1.239-0.831-2.623-1.458-4.132-1.803c-5.369-1.23-10.979,1.218-14.06,5.644c-3.641-5.112-10.407-7.813-16.552-5.961   c-6.179,1.862-10.394,7.893-10.541,14.223c-6.14-2.105-13.538,0.126-16.927,5.893c-3.491,5.94-1.633,13.759,3.521,18.029   c-1.955,3.649-2.048,8.166-0.188,11.811c-0.084,0.002-0.172,0.082-0.14,0.171c1.363,3.642,4.28,6.511,7.614,8.422   c0.508,0.292,1.058,0.586,1.636,0.866c0.071,0.081,0.141,0.163,0.213,0.243c0.086,0.092,0.229,0.077,0.32,0.006   c0.555,0.252,1.129,0.483,1.713,0.681c0.045,0.053,0.091,0.105,0.135,0.158c0.107,0.126,0.248,0.091,0.333-0.005   c2.05,0.623,4.2,0.784,6.027-0.169c0.452,1.515,2.413,2.768,3.587,3.554c2.208,1.483,4.776,2.405,7.418,2.714   c4.854,0.567,10.822-1.099,13.975-5.055c8.401,3.924,18.639,6.896,27.481,2.706c8.596-4.072,10.663-13.975,7.182-22.301   c-0.112-0.272-0.338-0.419-0.574-0.465c-0.023-0.103-0.047-0.207-0.069-0.311c-0.002-0.124-0.044-0.221-0.111-0.294   C88.793,57.478,89.69,56.862,90.171,56.183z M90.37,52.667c-0.29-0.417-0.582-0.836-0.872-1.254c0.39,0.141,0.778,0.28,1.167,0.42   c0.009,0.003,0.015,0.002,0.021,0.004C90.59,52.118,90.483,52.394,90.37,52.667z M90.975,50.924   c-0.213-0.398-0.435-0.782-0.669-1.159c0.296,0.087,0.594,0.173,0.89,0.259C91.132,50.326,91.058,50.625,90.975,50.924z    M91.416,48.649c-0.291-0.467-0.583-0.934-0.875-1.401c0.197,0.073,0.396,0.146,0.593,0.22c0.114,0.084,0.255,0.066,0.368-0.002   C91.489,47.861,91.463,48.255,91.416,48.649z M90.115,46.211c0.031-0.222,0.059-0.444,0.079-0.668   c0.137,0.252,0.266,0.511,0.387,0.777C90.434,46.271,90.281,46.237,90.115,46.211z M91.197,44.175   c0.169,0.753,0.271,1.54,0.301,2.359c-0.114-0.306-0.229-0.588-0.397-0.93c-0.091-0.187-1.092-1.726-0.41-1.281   C90.881,44.447,91.1,44.346,91.197,44.175z M90.89,43.048c-0.11-0.104-0.274-0.21-0.546-0.393   c-0.068-0.046-0.134-0.058-0.197-0.057c-0.008-0.058-0.011-0.115-0.019-0.173c-0.094-0.707-0.245-1.395-0.44-2.066   C90.182,41.207,90.585,42.103,90.89,43.048z M89.854,47.595c0.274,0.447,0.549,0.895,0.823,1.342   c-0.354-0.106-0.726-0.176-1.135-0.226C89.66,48.342,89.765,47.971,89.854,47.595z M89.229,49.592   c0.234,0.359,0.455,0.72,0.665,1.086c-0.327-0.115-0.652-0.232-0.978-0.348C89.027,50.086,89.131,49.84,89.229,49.592z    M89.509,52.85l-1.741-0.425c0.236-0.363,0.457-0.733,0.662-1.113C88.79,51.824,89.148,52.337,89.509,52.85z M80.688,30.55   c-1.364-0.567-2.81-0.951-4.294-1.111c-0.05-0.458-0.133-0.909-0.229-1.357c0.016-0.006,0.027-0.006,0.041-0.013   c0.009-0.005,0.01-0.014,0.017-0.019c0.226,0.216,0.608,0.486,0.674,0.523c0.437,0.249,0.879,0.483,1.327,0.709   c0.796,0.4,1.607,0.759,2.426,1.106C80.661,30.442,80.676,30.495,80.688,30.55z M75.76,26.399c0.898,0.83,1.829,1.619,2.787,2.375   c-0.331-0.156-0.662-0.317-0.988-0.483c-0.309-0.156-1.034-0.744-1.535-0.835c-0.273-1.042-0.662-2.048-1.157-3   c0.835,0.595,1.67,1.192,2.504,1.789c-0.425-0.141-0.85-0.282-1.275-0.423C75.769,25.715,75.512,26.169,75.76,26.399z    M79.576,27.545c0.306,0.546,0.564,1.127,0.771,1.744c-0.987-0.729-1.948-1.491-2.877-2.291c0.608,0.198,1.213,0.396,1.819,0.594   C79.41,27.633,79.505,27.604,79.576,27.545z M78.935,26.539c-0.626-0.442-1.25-0.887-1.875-1.33   c0.32,0.086,0.646,0.164,0.975,0.231C78.355,25.79,78.657,26.155,78.935,26.539z M77.285,24.688   c-0.736-0.24-1.473-0.547-2.135-0.836c-0.248-0.108-0.457,0.053-0.484,0.247c-0.462-0.825-0.996-1.607-1.608-2.324   C74.599,22.599,76.054,23.549,77.285,24.688z M18.279,73.125c-0.04,0.291-0.052,0.541-0.028,0.774   c-1.065-0.703-2.027-1.502-2.925-2.366c0.957,0.639,1.997,1.121,3.081,1.461C18.344,73.013,18.289,73.051,18.279,73.125z    M19.688,74.775c-0.375-0.542-0.719-1.104-1.031-1.7c-0.002-0.003-0.006-0.003-0.008-0.006c0.2,0.058,0.402,0.11,0.605,0.159   c-0.015,0.057-0.015,0.118,0.01,0.176c0.212,0.501,0.432,1,0.647,1.5C19.835,74.861,19.762,74.818,19.688,74.775z M20.589,75.266   c-0.085-0.201-0.171-0.402-0.259-0.604c0.235,0.274,0.469,0.548,0.7,0.822C20.883,75.411,20.733,75.34,20.589,75.266z    M22.074,75.954c-0.739-0.864-1.477-1.729-2.211-2.597c0.372,0.069,0.745,0.124,1.121,0.16c-0.001,0.036,0.003,0.072,0.02,0.106   c0.366,0.782,0.736,1.563,1.104,2.344C22.096,75.963,22.086,75.958,22.074,75.954z M22.766,76.223   c-0.181-0.384-0.361-0.767-0.542-1.149c0.418,0.477,0.846,0.942,1.286,1.397C23.26,76.396,23.013,76.313,22.766,76.223z    M21.575,73.558c0.383,0.019,0.765,0.025,1.148,0.011c0.599,0.979,1.125,1.977,1.583,3.019   C23.342,75.627,22.433,74.621,21.575,73.558z M23.383,73.529c0.381-0.034,0.762-0.089,1.141-0.156   c0.256,0.928,0.582,1.806,0.976,2.657C24.763,75.225,24.059,74.391,23.383,73.529z M24.937,76.812   c-0.173-0.418-0.355-0.832-0.548-1.239c0.385,0.448,0.778,0.89,1.182,1.325C25.36,76.876,25.148,76.848,24.937,76.812z    M26.59,76.919c-0.443-0.816-0.821-1.65-1.126-2.521c0.718,0.793,1.436,1.586,2.153,2.378   C27.285,76.856,26.941,76.902,26.59,76.919z M25.212,73.232c0.416-0.097,0.83-0.209,1.236-0.347   c0.38,0.981,0.763,1.961,1.146,2.942C26.801,74.962,26.006,74.097,25.212,73.232z M28.521,76.454   c-0.132-0.347-0.264-0.694-0.395-1.039c0.182,0.329,0.379,0.645,0.596,0.948C28.658,76.399,28.589,76.421,28.521,76.454z    M28.875,71.249c-0.001-0.705-0.766-1.108-1.366-0.784c-4.032,2.178-9.318,1.661-12.631-1.629   c-3.509-3.486-3.816-9.115-1.284-13.22c0.272-0.442,0.064-0.952-0.323-1.23c-4.938-3.562-6.692-10.798-3.616-16.137   c3.085-5.346,10.388-7.295,15.864-4.745c0.549,0.255,1.355-0.036,1.31-0.751c-0.389-6.035,3.359-12.004,9.241-13.819   c5.853-1.807,12.357,1.19,15.322,6.389c0.328,0.574,1.221,0.588,1.545,0c2.454-4.454,7.727-7.219,12.804-6.038   c5.062,1.177,8.67,5.888,8.911,10.993c0.024,0.511,0.397,0.882,0.909,0.909c6.241,0.339,11.924,5.19,12.773,11.483   c0.849,6.297-3.354,12.488-9.29,14.459c-0.782,0.26-0.815,1.167-0.213,1.628c3.354,2.563,2.985,7.483,1.187,10.851   c-1.599,2.992-4.305,5.283-7.416,6.585c-7.281,3.05-15.254-0.159-20.323-5.716c-0.21-0.229-0.452-0.297-0.679-0.264   c-0.074,0.002-0.147,0.022-0.215,0.061c-0.315,0.141-0.557,0.472-0.566,0.835c-2.295,3.822-6.617,6.586-10.938,7.465   C34.892,79.588,28.887,77.01,28.875,71.249z M87.632,54.701c-0.425-0.139-0.852-0.278-1.277-0.417   c0.203-0.231,0.398-0.468,0.589-0.71L87.632,54.701z M87.343,59.216c0.057,0.316,0.116,0.631,0.204,0.937   c0.049,0.171,0.176,0.278,0.323,0.335c0.067,0.214,0.131,0.428,0.193,0.643c-1.462-1.24-2.729-2.612-3.844-4.151   c0.891,0.353,1.78,0.707,2.67,1.061c-0.066,0.24-0.098,0.483-0.07,0.731C86.852,59.07,87.076,59.251,87.343,59.216z M71.408,78.47   c0.415-0.116,0.829-0.247,1.238-0.397c0.478,0.869,0.878,1.757,1.2,2.682C73.032,79.994,72.221,79.232,71.408,78.47z    M71.555,80.708c-0.788-0.591-1.573-1.183-2.359-1.775c0.441-0.062,0.883-0.142,1.32-0.24   C70.92,79.345,71.267,80.008,71.555,80.708z M73.506,77.73c0.356-0.155,0.714-0.324,1.065-0.506   c0.604,0.952,1.139,1.916,1.62,2.916C75.296,79.338,74.4,78.534,73.506,77.73z M77.88,77.29l-0.778-1.331   c-0.061-0.105-0.146-0.159-0.24-0.176c0.246-0.189,0.49-0.391,0.729-0.599c0.69,1.261,1.391,2.518,2.095,3.771   C79.066,78.418,78.468,77.86,77.88,77.29z M77.912,78.831c-0.853-0.697-1.729-1.36-2.637-1.992   c0.116-0.067,0.235-0.132,0.351-0.202c0.207-0.126,0.412-0.268,0.616-0.409c0.15,0.179,0.304,0.355,0.457,0.531L77.912,78.831z    M82.922,61.911c1.39,1.688,2.785,3.374,4.18,5.058c-1.303-0.95-2.604-1.9-3.906-2.852C83.193,63.37,83.105,62.63,82.922,61.911z    M86.974,70.135c-1.454-0.86-2.88-1.763-4.277-2.713c0.194-0.655,0.335-1.314,0.418-1.974   C84.295,67.103,85.578,68.664,86.974,70.135z M82.482,60.376c-0.051-0.037-0.1-0.051-0.147-0.057   c-0.351-0.71-0.814-1.389-1.408-2.022c0.107-0.048,0.212-0.1,0.316-0.149c1.618,1.654,3.287,3.249,5.013,4.786   C84.975,62.119,83.716,61.27,82.482,60.376z M84.976,71.529c-0.982-0.748-1.99-1.459-3.026-2.138   c0.16-0.345,0.304-0.694,0.436-1.047C83.247,69.407,84.111,70.467,84.976,71.529z M84.071,73.648   c-1.025-0.827-2.055-1.653-3.077-2.485c0.176-0.283,0.342-0.571,0.499-0.862C82.353,71.418,83.211,72.533,84.071,73.648z    M85.364,59.525c-1.039-0.633-2.075-1.268-3.115-1.9c0.366-0.209,0.724-0.431,1.073-0.668   C83.951,57.867,84.629,58.721,85.364,59.525z M84.289,56.245c0.373-0.297,0.734-0.61,1.079-0.938c0.46,0.638,0.92,1.275,1.38,1.913   C85.928,56.896,85.109,56.57,84.289,56.245z M83.384,76.406c-1.313-1.035-2.625-2.072-3.937-3.111   c0.392-0.462,0.761-0.949,1.104-1.452C81.405,73.429,82.347,74.946,83.384,76.406z M81.189,77.523   c-1.029-0.935-2.059-1.869-3.083-2.808c0.293-0.278,0.579-0.569,0.858-0.872C79.706,75.071,80.447,76.297,81.189,77.523z    M57.461,77.044c0.097,0.223,0.198,0.445,0.295,0.669c-0.522-0.577-1.046-1.155-1.569-1.732c0.428,0.26,0.861,0.508,1.305,0.739   C57.43,76.808,57.408,76.926,57.461,77.044z M51.298,72.757c0.095-0.157,0.196-0.311,0.285-0.473   c0.615,0.639,1.268,1.24,1.95,1.804c0.327,0.749,0.654,1.496,0.981,2.246c-1.065-1.187-2.129-2.373-3.193-3.56   C51.313,72.767,51.305,72.764,51.298,72.757z M52.605,77.27c-0.879-0.887-1.757-1.773-2.635-2.66   c0.329-0.394,0.639-0.801,0.925-1.223C51.463,74.683,52.035,75.976,52.605,77.27z M50.833,78.528   c-0.825-0.747-1.651-1.495-2.477-2.243c0.383-0.344,0.746-0.708,1.094-1.084C49.911,76.31,50.372,77.419,50.833,78.528z    M49.287,79.485c-0.802-0.673-1.606-1.345-2.409-2.019c0.334-0.239,0.657-0.49,0.974-0.75   C48.33,77.639,48.809,78.563,49.287,79.485z M44.417,78.938c0.425,0.836,1.119,2.19,1.259,2.419   c-0.195-0.216-1.527-1.389-2.209-1.987C43.787,79.237,44.104,79.092,44.417,78.938z M32.201,79.356   c0.799,0.42,1.656,0.745,2.547,0.962c-0.05,0.071-0.055,0.182,0.034,0.249c0.297,0.224,0.593,0.447,0.889,0.671   C34.954,80.912,33.479,80.182,32.201,79.356z M36.536,81.592c-0.519-0.395-1.039-0.882-1.449-1.2   c0.659,0.14,1.335,0.221,2.017,0.24c0.002,0.033,0.007,0.065,0.022,0.096c0.235,0.467,0.833,1.077,0.879,1.348   C37.51,81.938,37.02,81.777,36.536,81.592z M38.281,82.155c-0.202-0.377-0.381-0.758-0.356-0.9   c-0.027,0.152,0.68,0.656,1.374,1.126C38.958,82.315,38.618,82.242,38.281,82.155z M39.92,82.117   c-0.747-0.41-1.443-0.998-2.164-1.486c0.457-0.013,0.914-0.05,1.371-0.105c0.23,0.44,0.469,0.878,0.692,1.322   c0.079,0.153,0.157,0.264,0.226,0.347C40.008,82.169,39.972,82.146,39.92,82.117z M40.733,82.589   c-0.318-0.581-0.86-1.566-0.824-1.6c0.138-0.128,1.322,0.934,2.102,1.664C41.583,82.647,41.156,82.628,40.733,82.589z    M42.013,82.02c-0.743-0.554-1.428-1.089-2.193-1.588c0.42-0.07,0.836-0.161,1.25-0.263c0.226,0.471,0.439,0.965,0.715,1.398   C42.103,82.068,42.723,82.547,42.013,82.02z M42.856,82.637c-0.346-0.694-1.068-2.133-1.13-2.093   c0.125-0.08,1.729,1.28,2.531,1.961C43.804,82.571,43.338,82.615,42.856,82.637z M41.813,79.967   c0.355-0.106,0.708-0.227,1.058-0.357c0.41,0.637,1.293,1.92,1.398,2.263C44.085,81.51,42.62,80.519,41.813,79.967z M44.96,82.387   c-0.314-0.501-1.103-1.68-1.419-2.192c0.442,0.525,1.876,1.566,2.387,1.963C45.611,82.245,45.289,82.321,44.96,82.387z    M46.476,81.999c-0.004-0.009-0.004-0.017-0.008-0.026c-0.222-0.45-1.267-2.744-1.549-2.966c0.29,0.066,1.943,1.593,2.914,2.495   C47.39,81.688,46.938,81.854,46.476,81.999z M45.148,78.556c0.398-0.22,0.786-0.452,1.165-0.7c0.512,1.004,1.022,2.008,1.536,3.012   C46.95,80.097,46.05,79.327,45.148,78.556z M48.59,81.159c-0.455-0.9-0.912-1.8-1.369-2.701c0.836,0.704,1.672,1.405,2.505,2.112   C49.351,80.778,48.973,80.975,48.59,81.159z M50.304,80.236c-0.433-0.856-0.869-1.71-1.306-2.564   c0.732,0.671,1.465,1.342,2.196,2.013C50.899,79.875,50.602,80.058,50.304,80.236z M51.809,79.283   c-0.458-1.109-0.918-2.218-1.379-3.326c0.839,0.848,1.678,1.695,2.515,2.542C52.565,78.768,52.188,79.03,51.809,79.283z    M54.477,77.828c-0.136-0.115-0.32-0.16-0.484-0.065c-0.084,0.027-0.157,0.075-0.214,0.144c-0.053,0.038-0.105,0.076-0.16,0.115   c-0.475-1.097-0.951-2.194-1.427-3.292c0.991,1.104,1.982,2.208,2.976,3.312C54.938,77.97,54.707,77.898,54.477,77.828z    M55.865,78.263c0.071-0.1,0.103-0.236,0.048-0.362c-0.354-0.81-0.708-1.62-1.063-2.429c1.061,1.162,2.119,2.325,3.179,3.487   C57.306,78.725,56.583,78.492,55.865,78.263z M59.136,79.315c-0.003-0.033-0.008-0.065-0.023-0.097   c-0.153-0.34-0.311-0.68-0.464-1.019c0.5,0.479,0.999,0.957,1.497,1.436C59.81,79.53,59.473,79.423,59.136,79.315z M58.49,77.21   c0.577,0.265,1.164,0.506,1.76,0.718c-0.048,0.084-0.063,0.19-0.017,0.296c0.171,0.387,0.345,0.772,0.519,1.157   C59.996,78.658,59.242,77.936,58.49,77.21z M61.737,80.125c-0.125-0.279-0.252-0.556-0.375-0.834   c0.378,0.352,0.758,0.705,1.136,1.058C62.245,80.274,61.99,80.2,61.737,80.125z M61.057,78.2c0.637,0.199,1.277,0.37,1.927,0.504   c-0.043,0.066-0.063,0.147-0.039,0.226c0.148,0.487,0.3,0.973,0.45,1.459C62.613,79.661,61.831,78.934,61.057,78.2z M64.125,80.796   c-0.124-0.397-0.245-0.794-0.368-1.19c0.241,0.177,0.48,0.355,0.722,0.533c0.555,0.225,1.128,0.679,1.675,1.143   C65.476,81.135,64.8,80.971,64.125,80.796z M63.673,78.834c0.699,0.119,1.403,0.196,2.109,0.235c-0.005,0.056,0,0.114,0.03,0.177   c0.292,0.614,0.586,1.228,0.878,1.842C65.683,80.339,64.678,79.588,63.673,78.834z M67.528,81.552   c-0.222-0.479-0.444-0.959-0.667-1.439c0.687,0.552,1.372,1.104,2.059,1.656C68.454,81.707,67.99,81.635,67.528,81.552z    M66.541,79.096c0.507,0.007,1.014-0.007,1.52-0.043c0.297,0.644,0.595,1.288,0.893,1.931   C68.147,80.355,67.345,79.726,66.541,79.096z M70.1,81.906c-0.343-0.748-0.688-1.496-1.032-2.243   c1.006,0.758,2.013,1.516,3.019,2.273c0.235,0.177,0.572-0.115,0.488-0.375c-0.185-0.586-0.4-1.132-0.644-1.664   c0.729,0.688,1.46,1.376,2.189,2.065C72.775,82.061,71.434,82.033,70.1,81.906z M74.909,81.89c-0.002-0.024,0-0.048-0.007-0.075   c-0.255-0.976-0.581-1.876-0.975-2.757c0.941,0.847,1.883,1.692,2.824,2.538C76.136,81.724,75.522,81.821,74.909,81.89z    M77.532,81.418c-0.444-1.089-0.945-2.128-1.509-3.145c1.064,0.802,2.087,1.651,3.073,2.557c0.043,0.04,0.089,0.063,0.14,0.079   C78.668,81.107,78.1,81.277,77.532,81.418z M79.681,80.748c0.065-0.102,0.082-0.235,0.002-0.372l-0.768-1.315   c0.497,0.468,1.009,0.926,1.546,1.37C80.206,80.542,79.945,80.646,79.681,80.748z M81.082,80.142   c-0.718-1.296-1.446-2.584-2.174-3.872c1.131,1.024,2.262,2.049,3.393,3.075c0.036,0.033,0.075,0.051,0.115,0.063   C81.992,79.669,81.549,79.915,81.082,80.142z M82.81,79.158c0.006-0.056-0.002-0.115-0.04-0.175   c-0.896-1.481-1.795-2.96-2.693-4.441c1.434,1.137,2.868,2.274,4.301,3.412C83.895,78.384,83.373,78.785,82.81,79.158z    M84.908,77.452c-1.239-1.619-2.351-3.303-3.36-5.067c1.374,1.108,2.745,2.219,4.117,3.33c0.243,0.198,0.707-0.07,0.479-0.37   c-1.229-1.616-2.461-3.229-3.691-4.842c1.585,1.086,3.102,2.259,4.557,3.529c0.106,0.094,0.222,0.106,0.321,0.078   C86.713,75.328,85.909,76.453,84.908,77.452z M87.548,73.665c-0.016-0.037-0.032-0.075-0.062-0.11   c-1.249-1.549-2.505-3.091-3.761-4.635c1.492,0.969,3.012,1.889,4.563,2.766C88.089,72.367,87.843,73.027,87.548,73.665z    M88.535,70.715c-1.629-1.603-3.122-3.305-4.479-5.136c1.586,1.158,3.172,2.318,4.758,3.479   C88.749,69.619,88.656,70.172,88.535,70.715z M88.853,65.287c0.083,0.942,0.101,1.875,0.048,2.792   c-1.586-1.916-3.173-3.829-4.766-5.74C85.67,63.381,87.241,64.361,88.853,65.287z M88.241,61.785   c0.204,0.794,0.365,1.59,0.479,2.382c-1.992-1.69-3.92-3.447-5.773-5.287c1.623,0.993,3.245,1.984,4.867,2.975   C87.967,61.948,88.133,61.893,88.241,61.785z M87.44,56.955c-0.466-0.657-0.932-1.315-1.397-1.973   c0.791,0.267,1.583,0.534,2.373,0.799C88.074,56.162,87.726,56.552,87.44,56.955z M88.882,55.253   c-0.007-0.016-0.011-0.032-0.02-0.048c-0.401-0.661-0.805-1.322-1.206-1.985c0.731,0.182,1.465,0.365,2.195,0.547   c-0.109,0.213-0.22,0.427-0.339,0.635C89.35,54.681,89.128,54.964,88.882,55.253z"/></g></svg>
